<?xml version="1.0" encoding="utf-8"?>
<!-- Generator: Adobe Illustrator 19.1.0, SVG Export Plug-In . SVG Version: 6.00 Build 0)  -->
<svg version="1.1" id="Layer_1" xmlns="http://www.w3.org/2000/svg" xmlns:xlink="http://www.w3.org/1999/xlink" x="0px" y="0px"
	 width="1000px" height="549px" viewBox="0 0 1000 549" style="enable-background:new 0 0 1000 549;" xml:space="preserve">
<style type="text/css">
	.st0{fill:#544841;}
	.st1{fill:#736458;}
	.st2{fill:#A67D52;}
	.st3{clip-path:url(#SVGID_2_);fill:#603A17;}
	.st4{fill:#754D25;}
	.st5{fill:#603A17;}
	.st6{fill:#412312;}
	.st7{fill:#231F20;}
	.st8{fill:#6A1243;}
	.st9{fill:#603A17;stroke:#412312;stroke-miterlimit:10;}
	.st10{fill:#FFFFFF;}
	.st11{fill:#8D633A;}
	.st12{fill:none;stroke:#A67D52;stroke-width:1.5423;stroke-linecap:round;stroke-miterlimit:10;}
</style>
<rect class="st0" width="1000" height="549"/>
<g>
	<path class="st1" d="M293.3,253H312c8.7,0,13.4,5.9,13.4,12.9c0,7-4.8,12.9-13.4,12.9h-10.2V293h-8.5V253z M310.9,260.5h-9.1v10.8
		h9.1c3.4,0,5.9-2.1,5.9-5.4C316.8,262.5,314.2,260.5,310.9,260.5z"/>
	<path class="st1" d="M361.7,252.3c12.1,0,20.9,8.6,20.9,20.7s-8.8,20.7-20.9,20.7c-12.1,0-20.9-8.6-20.9-20.7
		S349.6,252.3,361.7,252.3z M361.7,259.9c-7.4,0-12.1,5.6-12.1,13.1c0,7.4,4.7,13.1,12.1,13.1c7.4,0,12.2-5.7,12.2-13.1
		C373.9,265.5,369.1,259.9,361.7,259.9z"/>
	<path class="st1" d="M415.4,278.8h-6.2V293h-8.5v-40h18.7c8.3,0,13.4,5.5,13.4,12.9c0,7.1-4.4,10.9-8.8,11.9l9,15.2h-9.8
		L415.4,278.8z M418.1,260.5h-8.9v10.8h8.9c3.4,0,6-2,6-5.4C424.1,262.5,421.5,260.5,418.1,260.5z"/>
	<path class="st1" d="M459.9,260.5h-11.7V253h31.9v7.5h-11.6V293h-8.6V260.5z"/>
	<path class="st1" d="M497.5,253h28.3v7.5H506v8.5h19.4v7.5H506V293h-8.5V253z"/>
	<path class="st1" d="M562.7,252.3c12.1,0,20.9,8.6,20.9,20.7s-8.8,20.7-20.9,20.7c-12.1,0-20.9-8.6-20.9-20.7
		S550.7,252.3,562.7,252.3z M562.7,259.9c-7.4,0-12.1,5.6-12.1,13.1c0,7.4,4.7,13.1,12.1,13.1s12.2-5.7,12.2-13.1
		C574.9,265.5,570.1,259.9,562.7,259.9z"/>
	<path class="st1" d="M601.7,253h8.5v32.5h16.9v7.5h-25.4V253z"/>
	<path class="st1" d="M645.1,253h8.5v40h-8.5V253z"/>
	<path class="st0" d="M692.5,252.3c12.1,0,20.9,8.6,20.9,20.7s-8.8,20.7-20.9,20.7c-12.1,0-20.9-8.6-20.9-20.7
		S680.4,252.3,692.5,252.3z M692.5,259.9c-7.4,0-12.1,5.6-12.1,13.1c0,7.4,4.7,13.1,12.1,13.1s12.2-5.7,12.2-13.1
		C704.6,265.5,699.8,259.9,692.5,259.9z"/>
</g>
<g>
	<path class="st1" d="M691.5,187.8c12.1,0,20.9,8.6,20.9,20.7s-8.8,20.7-20.9,20.7c-12.1,0-20.9-8.6-20.9-20.7
		S679.5,187.8,691.5,187.8z M691.5,195.4c-7.4,0-12.1,5.6-12.1,13.1c0,7.4,4.7,13.1,12.1,13.1c7.4,0,12.2-5.7,12.2-13.1
		C703.7,201,698.9,195.4,691.5,195.4z"/>
</g>
<g>
	<circle class="st2" cx="704.3" cy="273.2" r="32.5"/>
	<g>
		<defs>
			<circle id="SVGID_1_" cx="704.3" cy="273" r="32.5"/>
		</defs>
		<use xlink:href="#SVGID_1_"  style="overflow:visible;fill:#AA5D26;"/>
		<clipPath id="SVGID_2_">
			<use xlink:href="#SVGID_1_"  style="overflow:visible;"/>
		</clipPath>
		<path class="st3" d="M671.9,291.6c0,0,3.4,0.5,7.7-6.6c4.3-7.1,5.9-10.5,5.9-12.7s25.4,5.1,25.4,5.1l-2.6,9.3
			c0,0-1.9,8.2-7.9,15.3c-6,7.1-9.4,9.9-9.4,9.9s-14.3-5.7-17.1-10C671.2,297.5,671.9,291.6,671.9,291.6z"/>
	</g>
	<g>
		<g>
			<path class="st4" d="M678.8,245c0,0-4.8,11.1-4.1,21.4c0.6,10.2,6.1,17.7,7.8,19.7c1.7,2,5.2-9.5,5.2-9.5s-4-2.4-5.3-8.1
				s-0.8-19.6,0-21c0.8-1.4,2.3-4.7,1.4-5.5c-0.9-0.8-2.9-1.4-3.7-0.3C679.1,242.7,678.8,245,678.8,245z"/>
			<path class="st5" d="M674.4,232.4c0,0-2.2,10.5,1.6,16.1c3.5,5.2,5.1,2.3,8.2,1.6c3.1-0.6,11.4-4.3,11.4-4.3l-8.5-3.7l1.9-9.5
				l-7.8,4.7L674.4,232.4z"/>
		</g>
		
			<ellipse transform="matrix(0.5682 0.8229 -0.8229 0.5682 514.3958 -442.4169)" class="st6" cx="678.8" cy="268.9" rx="3.8" ry="2.1"/>
	</g>
	<g>
		<path class="st4" d="M711.7,267.7l-1.1,17c0,0,15.1-7.3,23.3-11.5c8.2-4.2,17.7-9.3,18.9-10.8c1.2-1.4,2.6-3.1,2.6-3.1
			s0.8-0.9-0.8-0.7c-1.6,0.3-0.9,1.1-7.8,3.8c-6.9,2.7-9.4,2.6-16.5,3.7C723.1,267.1,711.7,267.7,711.7,267.7z"/>
		<path class="st5" d="M749,250.7c0,0-2.6,5.8-2.9,9.3c-0.3,3.5,0.7,6.2,4.2,6.4c3.5,0.3,8.2-1.8,10.6-3c2.4-1.3,5.1-2.8,5.1-2.8
			l-8.7-2.2l3.8-7.3l-8.1,3.5L749,250.7z"/>
	</g>
	<path class="st5" d="M726.7,261.9c0.4,2.9-9.5,6.5-21.4,8c-11.9,1.5-24.3,0-24.7-3c-0.4-2.9,10.8-11.6,22.7-13.1
		C715.2,252.4,726.4,259,726.7,261.9z"/>
	<path class="st5" d="M725.2,263.1c0,6.5-7.6,22.4-19.6,22.4s-15.7-5.9-23.9-18.2c-3.6-5.4,11.4-6.6,23.4-6.6
		S725.2,256.6,725.2,263.1z"/>
	<path class="st7" d="M723.2,266.3c0.9,4-4.9,14.6-16.2,16.2c-8.9,1.2-20.2-7.5-21.1-11.6s14.2,1.3,22.9-0.6
		C717.6,268.4,722.3,262.2,723.2,266.3z"/>
	<path class="st8" d="M715.5,277c-0.3-1.9-4.2-0.8-8.7-0.1c-4.5,0.7-7.8,0.8-7.5,2.7c0.3,1.9,4.2,2.9,8.6,2.2
		C712.4,281,715.8,278.9,715.5,277z"/>
	<g>
		<ellipse transform="matrix(0.6347 -0.7728 0.7728 0.6347 51.1181 625.0424)" class="st9" cx="686.7" cy="258.5" rx="7.6" ry="8"/>
		<g>
			<circle class="st10" cx="686.8" cy="259" r="6.4"/>
			<g>
				<circle class="st7" cx="687.9" cy="259.4" r="4.8"/>
				<circle class="st10" cx="688.6" cy="259.3" r="1.5"/>
			</g>
		</g>
	</g>
	<g>
		<ellipse transform="matrix(0.6347 -0.7728 0.7728 0.6347 68.1393 651.6772)" class="st9" cx="723.4" cy="253.8" rx="7.6" ry="8"/>
		<g>
			<circle class="st10" cx="723.4" cy="254.3" r="6.4"/>
			<g>
				<circle class="st7" cx="722.5" cy="255" r="4.8"/>
				<circle class="st10" cx="721.7" cy="255.7" r="1.5"/>
			</g>
		</g>
	</g>
	<path class="st11" d="M681.1,267c0,0,1.7,3,5,4c3.5,1,8.5,2.5,18.5,1.2c5.9-0.7,13.3-3.2,16.2-5.1c2.9-1.9,4.3-4,4.3-4
		s-8.9-3.5-17.1-2.6c-11.2,1.3-3.3,4.1-9.1,6.2C692.5,268.9,681.1,267,681.1,267z"/>
	<ellipse class="st4" cx="704.1" cy="258.1" rx="4.3" ry="1.3"/>
	<ellipse transform="matrix(0.8543 0.5198 -0.5198 0.8543 254.5097 -319.9805)" class="st6" cx="698" cy="294" rx="5" ry="3"/>
	<ellipse class="st6" cx="688.9" cy="293.6" rx="3.4" ry="2.3"/>
	<ellipse transform="matrix(0.5682 0.8229 -0.8229 0.5682 494.828 -454.9081)" class="st6" cx="680.9" cy="244" rx="4.8" ry="3.8"/>
	<ellipse class="st6" cx="752" cy="260.9" rx="4.8" ry="3.8"/>
	
		<ellipse transform="matrix(0.5682 0.8229 -0.8229 0.5682 508.5923 -445.4167)" class="st6" cx="678.7" cy="261.9" rx="1.9" ry="1.3"/>
	<ellipse transform="matrix(0.9298 -0.368 0.368 0.9298 -47.9414 288.4212)" class="st6" cx="732.4" cy="269.9" rx="3.4" ry="1.4"/>
	<ellipse transform="matrix(0.968 -0.2508 0.2508 0.968 -44.2007 187.2113)" class="st4" cx="712.5" cy="267" rx="6.2" ry="1.9"/>
	<path class="st12" d="M709.2,280.5"/>
	<path class="st12" d="M705.3,276.9"/>
</g>
<path class="st6" d="M685.5,273.1c0,0,4.4,6.2,8.8,9.1c3.2,2.1,5.8,3.8,12.5,3.8c1,0,1.7-0.2,1.7-0.2s-0.7,3.7-1,4.3
	c-0.3,0.7-5.9,1.2-11.8-1.8c-5.5-2.9-6.8-5.2-8.3-8.5c-0.7-1.5-2.2-5.4-2.2-5.4L685.5,273.1z"/>
</svg>
